HIERARCHY
ROOT Hips
{
	OFFSET	0.00	0.00	0.00
	CHANNELS 6 Xposition Yposition Zposition Zrotation Xrotation Yrotation
	JOINT LeftUpLeg
	{
		OFFSET	 0.126116	-0.014019	-0.065224
		CHANNELS 3 Zrotation Xrotation Yrotation
		JOINT LeftLeg
		{
			OFFSET	 0.000000	 0.000000	 0.569914
			CHANNELS 3 Zrotation Xrotation Yrotation
			JOINT LeftFoot
			{
				OFFSET	 0.000000	 0.000000	 0.544423
				CHANNELS 3 Zrotation Xrotation Yrotation
				JOINT LeftToeBase
				{
					OFFSET	 0.000000	 0.000000	 0.207117
					CHANNELS 3 Zrotation Xrotation Yrotation
					End Site
					{
						OFFSET	 0.000000	 0.000000	 0.207117
					}
				}
			}
		}
	}
	JOINT RightUpLeg
	{
		OFFSET	-0.124023	-0.008373	-0.065224
		CHANNELS 3 Zrotation Xrotation Yrotation
		JOINT RightLeg
		{
			OFFSET	 0.000000	 0.000000	 0.570047
			CHANNELS 3 Zrotation Xrotation Yrotation
			JOINT RightFoot
			{
				OFFSET	 0.000000	 0.000000	 0.544354
				CHANNELS 3 Zrotation Xrotation Yrotation
				JOINT RightToeBase
				{
					OFFSET	 0.000000	 0.000000	 0.207540
					CHANNELS 3 Zrotation Xrotation Yrotation
					End Site
					{
						OFFSET	 0.000000	 0.000000	 0.207540
					}
				}
			}
		}
	}
	JOINT Spine
	{
		OFFSET	 0.000184	-0.007763	 0.117403
		CHANNELS 3 Zrotation Xrotation Yrotation
		JOINT Spine1
		{
			OFFSET	 0.000000	 0.000000	 0.137269
			CHANNELS 3 Zrotation Xrotation Yrotation
			JOINT Spine2
			{
				OFFSET	 0.000000	 0.000000	 0.156879
				CHANNELS 3 Zrotation Xrotation Yrotation
				JOINT LeftShoulder
				{
					OFFSET	 0.080501	-0.002496	 0.160144
					CHANNELS 3 Zrotation Xrotation Yrotation
					JOINT LeftArm
					{
						OFFSET	 0.000000	 0.000000	 0.164363
						CHANNELS 3 Zrotation Xrotation Yrotation
						JOINT LeftForeArm
						{
							OFFSET	 0.000000	 0.000000	 0.364576
							CHANNELS 3 Zrotation Xrotation Yrotation
							JOINT LeftHand
							{
								OFFSET	 0.000000	 0.000000	 0.360812
								CHANNELS 3 Zrotation Xrotation Yrotation
								JOINT LeftHandIndex1
								{
									OFFSET	 0.000000	 0.000000	 0.086006
									CHANNELS 3 Zrotation Xrotation Yrotation
									JOINT LeftHandIndex2
									{
										OFFSET	 0.000000	 0.000000	 0.047236
										CHANNELS 3 Zrotation Xrotation Yrotation
										JOINT LeftHandIndex3
										{
											OFFSET	-0.004284	-0.000551	 0.038166
											CHANNELS 3 Zrotation Xrotation Yrotation
											End Site
											{
												OFFSET	-0.004284	-0.000551	 0.038166
											}
										}
									}
								}
							}
						}
					}
				}
				JOINT Neck
				{
					OFFSET	 0.000000	 0.000000	 0.176489
					CHANNELS 3 Zrotation Xrotation Yrotation
					JOINT Head
					{
						OFFSET	 0.000000	-0.001747	 0.077940
						CHANNELS 3 Zrotation Xrotation Yrotation
						End Site
						{
							OFFSET	 0.000000	-0.001747	 0.077940
						}
					}
				}
				JOINT RightShoulder
				{
					OFFSET	-0.080363	 0.000306	 0.159706
					CHANNELS 3 Zrotation Xrotation Yrotation
					JOINT RightArm
					{
						OFFSET	 0.000000	 0.000000	 0.164196
						CHANNELS 3 Zrotation Xrotation Yrotation
						JOINT RightForeArm
						{
							OFFSET	 0.000000	 0.000000	 0.365611
							CHANNELS 3 Zrotation Xrotation Yrotation
							JOINT RightHand
							{
								OFFSET	 0.000000	 0.000000	 0.360648
								CHANNELS 3 Zrotation Xrotation Yrotation
								JOINT RightHandIndex1
								{
									OFFSET	 0.000000	 0.000000	 0.069977
									CHANNELS 3 Zrotation Xrotation Yrotation
									JOINT RightHandIndex2
									{
										OFFSET	 0.000000	 0.000000	 0.052305
										CHANNELS 3 Zrotation Xrotation Yrotation
										JOINT RightHandIndex3
										{
											OFFSET	 0.009002	-0.000782	 0.042196
											CHANNELS 3 Zrotation Xrotation Yrotation
											End Site
											{
												OFFSET	 0.009002	-0.000782	 0.042196
											}
										}
									}
								}
							}
						}
					}
				}
			}
		}
	}
}
MOTION
Frames:    6
Frame Time: 0.03333334
-0.503288	 6.154461	-0.981936	 11.245980	 0.663704	 3.700370	 5.052150	-3.988642	 176.479800	-11.240230	-33.752670	-5.156281	 171.918200	 86.574230	 179.430500	-2.377523	 30.170480	-0.037578	 1.763841	-12.667810	 178.957000	 3.658813	-47.635810	 5.721187	-175.392000	 82.102330	-178.666600	 2.403715	 22.117160	-0.130745	 3.009269	 0.155835	-1.678971	 6.083931	-2.687566	 0.263588	 7.751425	-4.794668	 0.836029	-91.809780	 77.617300	 179.124600	 36.768350	 69.875940	-39.798730	-7.977015	-4.001906	-19.883580	 5.108684	-10.613700	-5.423936	-3.812334	 37.924440	-2.927599	-2.450526	 36.184240	 0.754587	-1.378229	 35.397820	-2.634230	 0.531948	 6.069411	-3.201745	 2.263016	-13.562130	-1.060136	 89.765430	 79.258440	-179.645800	-36.414000	 70.334880	 39.110920	 4.229227	-7.821193	 30.703400	-9.885461	-11.510310	 9.780039	 6.437017	 35.671460	-0.771858	 2.830251	 35.756010	-7.813440	-2.350882	 35.473990	 5.254307
-0.502605	 6.158579	-0.982480	 11.485880	 0.732803	 3.716134	 5.027990	-4.170592	 176.509700	-11.106580	-33.989890	-5.127170	 171.977300	 86.341510	 179.477100	-2.376488	 30.366090	-0.041914	 1.788007	-12.762330	 178.976400	 3.735675	-47.849210	 5.822440	-175.738600	 81.803820	-178.276300	 2.403622	 22.169460	-0.129690	 2.995259	 0.167949	-1.743142	 6.050412	-2.691144	 0.249003	 7.679972	-4.800155	 0.828666	-91.809590	 77.594660	 179.150200	 36.610450	 69.833810	-39.590230	-8.051605	-4.031542	-20.288830	 5.025410	-10.607380	-5.426107	-3.812334	 37.924440	-2.927599	-2.450526	 36.184240	 0.754587	-1.378229	 35.397820	-2.634230	 0.467327	 5.927598	-3.301937	 2.202637	-13.388010	-0.957044	 89.764500	 79.279380	-179.632700	-36.284030	 70.433830	 39.035900	 4.267958	-7.762044	 30.310290	-9.930600	-11.511620	 9.779321	 6.437017	 35.671460	-0.771858	 2.830251	 35.756010	-7.813440	-2.350882	 35.473990	 5.254307
-0.500417	 6.167736	-0.983553	 11.616350	 0.826081	 3.710202	 5.032341	-4.531003	 176.616900	-10.846960	-34.512130	-5.042177	 172.125400	 85.897930	 179.589100	-2.374726	 30.689800	-0.049125	 1.980810	-13.333080	 179.011200	 4.194155	-49.057400	 6.451087	-176.215700	 81.256900	-177.518600	 2.402630	 22.704420	-0.118862	 2.988980	 0.292822	-1.714666	 5.975018	-2.799482	 0.180340	 7.541841	-4.928579	 0.822113	-91.804700	 77.688850	 179.196400	 36.604730	 69.627990	-39.798390	-8.165283	-4.043702	-20.817370	 4.849236	-10.594150	-5.430083	-3.812334	 37.924440	-2.927599	-2.450526	 36.184240	 0.754587	-1.378229	 35.397820	-2.634230	 0.344261	 5.541663	-3.437504	 2.080251	-13.161710	-0.937710	 89.765510	 79.179640	-179.616800	-36.364260	 70.539400	 39.378780	 4.210216	-7.720515	 29.672200	-10.112590	-11.517040	 9.776598	 6.437017	 35.671460	-0.771858	 2.830251	 35.756010	-7.813440	-2.350882	 35.473990	 5.254307
-0.495346	 6.168179	-0.984648	 11.398100	 0.847689	 3.433302	 5.376258	-4.757680	 176.983000	-10.829180	-34.896030	-4.843921	 173.260200	 85.565090	 178.852100	-2.373737	 30.867510	-0.053100	 2.250269	-14.875630	 179.374100	 4.766104	-51.824890	 7.466638	-176.195800	 81.179310	-177.334800	 2.397914	 24.691990	-0.078145	 2.979718	 0.814189	-1.376115	 5.785671	-2.928694	 0.192026	 7.277416	-5.116529	 0.805064	-91.795750	 77.885500	 179.284500	 36.735150	 69.323560	-40.429100	-8.227523	-4.023224	-21.011820	 4.718706	-10.586930	-5.432596	-3.812334	 37.924440	-2.927599	-2.450526	 36.184240	 0.754587	-1.378229	 35.397820	-2.634230	 0.053019	 5.516835	-3.155850	 1.806615	-13.443090	-1.424515	 89.770710	 78.971150	-179.663300	-36.589940	 70.615780	 40.014360	 4.222415	-7.684395	 29.187760	-10.247500	-11.521420	 9.774406	 6.437017	 35.671460	-0.771858	 2.830251	 35.756010	-7.813440	-2.350882	 35.473990	 5.254307
-0.488930	 6.168681	-0.986176	 10.917880	 0.896854	 2.747844	 6.109382	-4.737084	 177.727700	-11.197040	-34.988730	-4.550780	 175.323700	 85.374460	 177.261900	-2.371584	 31.244300	-0.061554	 2.430820	-18.112790	-179.699700	 6.272521	-57.093880	 9.572277	-175.534200	 82.167590	-177.800700	 2.377270	 29.931220	 0.033725	 3.094771	 1.488269	-0.619526	 5.697762	-3.016303	 0.351581	 7.168955	-5.415440	 0.811603	-91.786380	 78.171090	 179.335300	 36.889770	 68.911740	-41.418570	-8.275575	-3.977523	-20.915370	 4.630193	-10.589340	-5.432627	-3.812334	 37.924440	-2.927599	-2.450526	 36.184240	 0.754587	-1.378229	 35.397820	-2.634230	-0.024934	 5.347758	-3.249002	 1.737433	-13.786390	-1.556767	 89.776020	 78.676430	-179.705400	-37.030960	 70.652680	 40.946870	 4.272481	-7.640662	 28.833250	-10.315140	-11.523660	 9.773578	 6.437017	 35.671460	-0.771858	 2.830251	 35.756010	-7.813440	-2.350882	 35.473990	 5.254307
-0.480845	 6.168899	-0.988735	 10.130570	 0.940618	 1.766884	 6.991448	-4.237803	 178.924100	-11.870210	-34.519710	-4.204792	 176.890400	 85.405690	 176.089900	-2.368920	 31.694400	-0.071724	 2.941525	-23.685630	-178.427100	 10.891800	-65.565870	 15.195910	-172.946800	 85.784530	-179.965100	 2.349159	 34.366710	 0.135358	 3.281251	 2.272839	 0.386497	 5.661729	-3.059335	 0.663564	 7.111282	-5.806274	 0.829137	-91.778660	 78.437000	 179.368600	 36.939230	 68.352180	-42.615810	-8.241107	-3.916287	-20.464710	 4.632602	-10.602660	-5.429512	-3.812334	 37.924440	-2.927599	-2.450526	 36.184240	 0.754587	-1.378229	 35.397820	-2.634230	-0.013411	 5.303185	-3.420698	 1.727726	-14.440740	-1.637993	 89.779730	 78.404940	-179.725100	-37.763410	 70.634190	 42.204490	 4.293978	-7.610322	 28.630610	-10.343970	-11.525900	 9.773095	 6.437017	 35.671460	-0.771858	 2.830251	 35.756010	-7.813440	-2.350882	 35.473990	 5.254307
